<svg xmlns="http://www.w3.org/2000/svg" width="457.105" height="300.088" viewBox="0 0 457.105 300.088"><defs><style>.a,.d,.f,.s{fill:none;}.b{fill:#ffb612;}.c{fill:#ccc;}.d{stroke:#1f171f;}.d,.f{stroke-width:2px;}.e{fill:#1f171f;}.f{stroke:#d52b1e;}.g{fill:#d52b1e;}.h{fill:#b28b67;}.h,.i,.j,.k,.l,.m,.n,.o{fill-rule:evenodd;}.i{fill:#191847;}.j{fill:#494788;}.k{fill:#605eb1;}.l{fill:#e87613;}.m{fill:#dde3e9;}.n{fill:#ff9b21;}.o{fill:rgba(0,0,0,0.1);}.p{fill:#fff;}.q,.r{stroke:none;}.r{fill:#feb633;}</style></defs><g transform="translate(-718 -918)"><g transform="translate(0 312)"><g class="a" transform="translate(718 735)"><path class="q" d="M10,0H270a10,10,0,0,1,10,10V40a10,10,0,0,1-10,10H10A10,10,0,0,1,0,40V10A10,10,0,0,1,10,0Z"/><path class="r" d="M 10 2 C 5.588775634765625 2 2 5.588787078857422 2 10 L 2 40 C 2 44.41121292114258 5.588775634765625 48 10 48 L 270 48 C 274.4112243652344 48 278 44.41121292114258 278 40 L 278 10 C 278 5.588787078857422 274.4112243652344 2 270 2 L 10 2 M 10 0 L 270 0 C 275.5228576660156 0 280 4.477142333984375 280 10 L 280 40 C 280 45.52285766601562 275.5228576660156 50 270 50 L 10 50 C 4.477142333984375 50 0 45.52285766601562 0 40 L 0 10 C 0 4.477142333984375 4.477142333984375 0 10 0 Z"/></g><circle class="b" cx="12" cy="12" r="12" transform="translate(733 748)"/></g><path class="c" d="M1031.848,970.037H942.9a2.125,2.125,0,0,0-2.119,2.12v93.364a2.126,2.126,0,0,0,2.119,2.121h88.95a2.128,2.128,0,0,0,2.12-2.121V972.157a2.127,2.127,0,0,0-2.12-2.12" transform="translate(8.221 101.477)"/><g transform="translate(0 183)"><g class="d" transform="translate(718 735)"><rect class="q" width="280" height="50" rx="10"/><rect class="s" x="1" y="1" width="278" height="48" rx="9"/></g><circle class="e" cx="12" cy="12" r="12" transform="translate(733 748)"/></g><g transform="translate(0 248)"><g class="f" transform="translate(718 735)"><rect class="q" width="280" height="50" rx="10"/><rect class="s" x="1" y="1" width="278" height="48" rx="9"/></g><circle class="g" cx="12" cy="12" r="12" transform="translate(733 748)"/></g><g transform="translate(1008 940)"><g transform="translate(0 0)"><g transform="translate(56.782 0)"><g transform="translate(4.728 11.482)"><path class="h" d="M22.786,23.294C25.9,19.641,28,15.164,27.652,10.148,26.638-4.306,6.518-1.126,2.6,6.169s-3.449,25.8,1.609,27.1c2.017.52,6.314-.754,10.688-3.39L12.157,49.3H28.366Z" transform="translate(0)"/></g><path class="i" d="M31.438,22.138a3.506,3.506,0,0,1,2.455-2.49,3.234,3.234,0,0,1,.9-.09c.109,0,.139.036.19-.04a1,1,0,0,0,.054-.261,4.916,4.916,0,0,1,.183-.609,4.967,4.967,0,0,1,1.2-1.781,6.031,6.031,0,0,1,3.622-1.714,5.281,5.281,0,0,1,2.178.3,8.623,8.623,0,0,1,1.057.452c.1.052.438.305.541.289s.344-.3.437-.374a6.4,6.4,0,0,1,4-1.218,7.322,7.322,0,0,1,4.518,1.078,9.037,9.037,0,0,1,.815.677c.136.127.268.258.394.395q.114.124.221.253c.121.147.1.2.27.093a3.359,3.359,0,0,1,2.157-.485,4.826,4.826,0,0,1,1.3.368c.141.06.469.3.619.3s.472-.221.626-.278a5.133,5.133,0,0,1,2.6-.241,6.719,6.719,0,0,1,2.551,1,3.429,3.429,0,0,1,.945.86c.111.154.212.316.338.458.074.083.22.169.259.274a5.6,5.6,0,0,1,1.081-.477,2.663,2.663,0,0,1,1.522.058,6.05,6.05,0,0,1,2.4,1.7,6.812,6.812,0,0,1,.888,1.193q.181.307.332.631a2.346,2.346,0,0,0,.146.329c.083.121.139.123.29.176a4.68,4.68,0,0,1,1.993,1.335,4.594,4.594,0,0,1,1.032,2.188,1.115,1.115,0,0,0,.041.269c.038.035.192.02.25.027a5.26,5.26,0,0,1,.6.106,4.944,4.944,0,0,1,1.053.379A5.5,5.5,0,0,1,80.2,30.5a6.535,6.535,0,0,1-.1,4.474,4.371,4.371,0,0,1-.332.655c-.079.128-.105.128-.054.262.058.149.163.294.231.44a6.316,6.316,0,0,1,.477,1.5,7.016,7.016,0,0,1,.082,2.586,3.733,3.733,0,0,1-.4,1.135,3.255,3.255,0,0,1-.35.508c-.069.082-.142.16-.218.235a1.454,1.454,0,0,0-.138.128c-.091.116-.11.021-.063.192a7.657,7.657,0,0,0,.3.708c.093.24.178.483.255.728a10.743,10.743,0,0,1,.372,1.518,4.766,4.766,0,0,1-.336,2.948,2.949,2.949,0,0,1-.834.993,3.1,3.1,0,0,1-.548.333c-.1.047-.226.067-.272.164s.024.309.04.424a7.069,7.069,0,0,1-.083,3.045,4.208,4.208,0,0,1-1.668,2.239,5.189,5.189,0,0,1-5.187.147,5.446,5.446,0,0,1-1.158-.8c-.888,1.2-2.716,1.158-4.014.817a5.766,5.766,0,0,1-3.663-3.027,2.44,2.44,0,0,1-3.877-.509,3.231,3.231,0,0,1-.327-1.063c-.027-.194-.01-.389-.03-.582a3,3,0,0,0-.283-.72,3.975,3.975,0,0,1-.3-1.435,7.288,7.288,0,0,1,.055-.771,2.648,2.648,0,0,0-.079-.677,3.1,3.1,0,0,0,1.311-.164,2.589,2.589,0,0,0,1.013-.713A5.914,5.914,0,0,0,61.3,43.829c.576-1.888.34-4.153-1.559-5.189a9.784,9.784,0,0,0-4.588-.243c-1.108.251-2.364,2.7-2.425,2.925-.038.142-.019.318-.15.413-.287.208-.761-.153-.972-.332a3.835,3.835,0,0,1-.852-1.133,14.017,14.017,0,0,1-1.168-2.866c-.216-.764-.354-1.551-.636-2.3a3.511,3.511,0,0,0-1.412-1.822,12.433,12.433,0,0,0-2.429-.983A6.029,6.029,0,0,1,42.86,31.07a3.106,3.106,0,0,1-.386-.43c-.088-.123-.175-.359-.31-.437-.209-.122-.514.195-.695.309a8.031,8.031,0,0,0-2.236,2.219,13.81,13.81,0,0,0-1.484,2.642,7.641,7.641,0,0,1-1,2.2,4.212,4.212,0,0,1-2.512.19,3.174,3.174,0,0,1-1.371-1.186,1.843,1.843,0,0,1-.156-1.208c.048-.244.147-.471.2-.71a2.215,2.215,0,0,1,.184-.575,1.418,1.418,0,0,1,.884-.7,4.151,4.151,0,0,1-.955-1.3,5.558,5.558,0,0,1-.494-1.687,2.048,2.048,0,0,1,.274-1.314,3.46,3.46,0,0,1,1.122-.931,7.3,7.3,0,0,1-1.562-1.7A5.311,5.311,0,0,1,31.438,22.138Z" transform="translate(-31.287 -14.6)"/></g><g transform="translate(0 116.673)"><path class="j" d="M201.7,0,169.23,85.926l-22.761,63.332H133.491L164.778,0Z" transform="translate(-106.476)"/><path class="k" d="M84.494,0c.353,29.483.1,69.177.92,71.015q.822,1.838,51.162,41.879l-6.69,11.375Q70.122,85.728,67.066,80.593C64.01,75.458,48.66,28.206,40.673,0Z" transform="translate(18.76)"/><g transform="matrix(-0.643, 0.766, -0.766, -0.643, 167.105, 120.549)"><path class="i" d="M0,0,.675,14.183H14.858Q24.946,7.091,41.2,2.7V0H15.534L6.754,1.351V0Z" transform="translate(0 0)"/></g><g transform="translate(0 147.232)"><path class="i" d="M41.2,34l-.675-14.183H26.34Q16.252,26.906,0,31.3V34H25.664l8.78-1.351V34Z" transform="translate(0 -19.815)"/></g></g><g transform="translate(0.895 43.48)"><path class="h" d="M72.715,96.167l-21.543,15.82a57.989,57.989,0,0,0-14.645,5.885c-.926.844-2.045,2.553,1.8,2.257s7.893-.433,8.423.877-1.794,2.876-.723,4.644q1.071,1.767,10.121-8.864l21.334-8.846Zm82.716.546-14.114.055q13.072,42.2,14.114,44.78c1.563,3.873-1.744,9.771-3.158,12.941,4.606,2.061,4.115-5.572,9.926-2.869,5.3,2.467,9.338,6.938,15.465,3.157.753-.465,1.579-2.215-.416-3.583-4.969-3.407-12.13-9.371-13.1-11.334Q162.171,135.846,155.431,96.713Z" transform="translate(-35.628 -31.517)"/><path class="l" d="M0,75.412l5.731,1.507C28.948,60.161,40.948,25.113,69.067,8.451L63.389,0C16.991,1.667,1.791,44.368,0,75.412Z" transform="translate(86.268 81.1) rotate(175)"/><path class="m" d="M147.384,76.993H95.71c-2.361,0-1.916-3.41-1.575-5.13C98.074,52.007,113.452,30.6,113.452,2.337L128.357,0C140.686,19.828,144.949,44.24,147.384,76.993Z" transform="translate(-42.231 2.373)"/><path class="n" d="M94.626,18.2a8.524,8.524,0,0,0,5.143-4.354c5.448-9.83,3.48-15.242-2.342-17.021S86.413-1.291,77.137-1.291a9.336,9.336,0,0,0-1.386.095L71.085-.93Q51,67.128,60.008,89.885h40.671a138.719,138.719,0,0,0,6.918,14.183h11.082Q120.244,53.482,94.626,18.2Z" transform="translate(10.111 3.664)"/><path class="o" d="M91.391,104.809q-1.919,16.053-6.237,23.3h15.093Q96.031,118.279,91.391,104.809Z" transform="translate(10.543 -34.562)"/></g></g></g><path class="p" d="M1029.728,972.687H945.019a1.6,1.6,0,0,0-1.59,1.59V1063.4a1.6,1.6,0,0,0,1.59,1.591h84.709a1.6,1.6,0,0,0,1.59-1.591V974.277a1.6,1.6,0,0,0-1.59-1.59" transform="translate(8.221 101.477)"/><rect class="c" width="73.964" height="3.652" rx="0.913" transform="translate(958.612 1096.708)"/><path class="c" d="M1023.442,1003.906a.913.913,0,0,1,.913.913v1.826a.912.912,0,0,1-.913.913H951.3a.913.913,0,0,1-.913-.913v-1.826a.914.914,0,0,1,.913-.913h72.138" transform="translate(8.221 101.477)"/><path class="c" d="M1023.442,1012.581a.912.912,0,0,1,.913.913v1.826a.912.912,0,0,1-.913.913H951.3a.913.913,0,0,1-.913-.913v-1.826a.913.913,0,0,1,.913-.913h72.138" transform="translate(8.221 101.477)"/><rect class="c" width="73.964" height="3.652" rx="0.913" transform="translate(958.612 1122.922)"/><rect class="c" width="73.964" height="3.652" rx="0.913" transform="translate(958.612 1131.597)"/><rect class="c" width="73.964" height="3.652" rx="0.913" transform="translate(958.612 1140.272)"/></g></svg>