<svg xmlns="http://www.w3.org/2000/svg" width="240" height="80" viewBox="0 0 240 80">
  <defs>
    <style>.a{fill:none;}.b{fill:#1f171f;}.c{fill:#ffb612;}.d{fill:#d52b1e;}</style>
  </defs>
  <rect class="a" width="240" height="80"/>
  <path class="b" d="M322.072,82.21l.007-.011,0,0,0,.007Z" transform="translate(-104 -46)"/>
  <path class="b" d="M322.072,82.187h0l0,0Z" transform="translate(-104 -46)"/>
  <rect class="c" width="24.891" height="24.813" transform="translate(136.316 3.327)"/>
  <g transform="translate(-104 -46)">
    <path class="c" d="M290.885,76.216c-8.4,0-15.211-6.484-15.211-14.482s6.81-14.483,15.211-14.483S306.1,53.736,306.1,61.734s-6.81,14.482-15.211,14.482"/>
  </g>
  <path class="c" d="M343.076,61.734,318.668,47.251V76.217Z" transform="translate(-104 -46)"/>
  <g transform="translate(-104 -46)">
    <path class="d" d="M315.321,96.309a9.96,9.96,0,0,0-4.251.879,6.569,6.569,0,0,0-2.963,2.719l-.215-3.19h-3.006v20.444h3.436V106.285a7.818,7.818,0,0,1,.966-4.068,5.749,5.749,0,0,1,2.469-2.33,7.4,7.4,0,0,1,3.221-.716,5.211,5.211,0,0,1,3.843,1.431q1.438,1.431,1.439,4.62v11.939H323.7V104.078a7.144,7.144,0,0,0-2.362-5.766,8.975,8.975,0,0,0-6.012-2M288.74,99.171a5.9,5.9,0,0,1,4.337,1.615,7.3,7.3,0,0,1,1.975,4.477H282.04a7.143,7.143,0,0,1,2.126-4.5,6.5,6.5,0,0,1,4.574-1.6m9.619,6.705a10.484,10.484,0,0,0-1.116-4.865,8.318,8.318,0,0,0-3.307-3.435,10.2,10.2,0,0,0-5.2-1.267q-4.854,0-7.494,2.821t-2.641,7.809q0,4.989,2.77,7.81A10.193,10.193,0,0,0,289,117.57a11.636,11.636,0,0,0,5.5-1.145,8.719,8.719,0,0,0,3.436-3.311l-2.878-1.432a4.1,4.1,0,0,1-2.125,2.249,8.8,8.8,0,0,1-3.93.777,6.857,6.857,0,0,1-4.831-1.717A7.224,7.224,0,0,1,282,108.166h16.189a15.477,15.477,0,0,0,.172-2.29m-25.122-9.567q-5.067,0-6.871,3.762l-.472-3.354H263.1v20.444h3.435V106.122a7.626,7.626,0,0,1,.837-3.7,5.73,5.73,0,0,1,2.148-2.289,5.3,5.3,0,0,1,2.683-.757,5.919,5.919,0,0,1,2.706.532l.687-3.19a5.425,5.425,0,0,0-2.362-.408m-26.281,2.862a5.9,5.9,0,0,1,4.338,1.615,7.309,7.309,0,0,1,1.975,4.477H240.257a7.138,7.138,0,0,1,2.126-4.5,6.5,6.5,0,0,1,4.573-1.6m9.619,6.705a10.459,10.459,0,0,0-1.116-4.865,8.318,8.318,0,0,0-3.307-3.435,10.193,10.193,0,0,0-5.2-1.267q-4.853,0-7.493,2.821t-2.641,7.809q0,4.989,2.769,7.81a10.193,10.193,0,0,0,7.623,2.821,11.629,11.629,0,0,0,5.5-1.145,8.706,8.706,0,0,0,3.436-3.311l-2.877-1.432a4.1,4.1,0,0,1-2.126,2.249,8.8,8.8,0,0,1-3.929.777,6.857,6.857,0,0,1-4.831-1.717,7.22,7.22,0,0,1-2.169-4.825H256.4a15.471,15.471,0,0,0,.171-2.29m-33.58-9.567a10.192,10.192,0,0,0-7.623,2.821q-2.771,2.822-2.77,7.809t2.77,7.81a10.192,10.192,0,0,0,7.623,2.821A9.86,9.86,0,0,0,228.663,116a9.263,9.263,0,0,0,3.435-4.436L228.92,110.5a5.073,5.073,0,0,1-2,3.127,6.786,6.786,0,0,1-4.015,1.084,6.385,6.385,0,0,1-5.047-2.065,9.829,9.829,0,0,1,0-11.407,6.385,6.385,0,0,1,5.047-2.065,5.512,5.512,0,0,1,5.711,4.047l3.263-1.471a9.465,9.465,0,0,0-3.456-4.028,9.908,9.908,0,0,0-5.432-1.41m-17.048.408h-3.436v20.444h3.436Zm-1.718-3.925a2.594,2.594,0,0,0,1.867-.674,2.585,2.585,0,0,0,0-3.557,2.921,2.921,0,0,0-3.735,0,2.585,2.585,0,0,0,0,3.557,2.593,2.593,0,0,0,1.868.674m-11.6-5.478H189.2v24.777a5.849,5.849,0,0,0,1.267,4.13,5.1,5.1,0,0,0,3.886,1.349,8.427,8.427,0,0,0,3.178-.572l.559-3.148a10.015,10.015,0,0,1-1.567.449,8.751,8.751,0,0,1-1.568.123,2.293,2.293,0,0,1-1.826-.593,3.456,3.456,0,0,1-.493-2.147Zm-20.14,27.394a6.259,6.259,0,0,1-4.917-2.044,7.923,7.923,0,0,1-1.825-5.479v-.491a7.921,7.921,0,0,1,1.825-5.479,6.263,6.263,0,0,1,4.917-2.044,6.163,6.163,0,0,1,4.939,2.106,9.793,9.793,0,0,1,0,11.325,6.16,6.16,0,0,1-4.939,2.106m.386-18.4a8.956,8.956,0,0,0-4.229.981,7.409,7.409,0,0,0-2.9,2.617V87.314h-3.436v29.847h3.007l.214-3.557a7,7,0,0,0,2.9,2.883,9.01,9.01,0,0,0,4.444,1.083,9.283,9.283,0,0,0,7.15-2.842,10.991,10.991,0,0,0,2.642-7.789,10.992,10.992,0,0,0-2.642-7.788,9.283,9.283,0,0,0-7.15-2.842m-21.986.408v11.122a6.5,6.5,0,0,1-1.954,5.152,7.175,7.175,0,0,1-4.917,1.717,5.222,5.222,0,0,1-3.779-1.247q-1.289-1.247-1.288-4.232V96.717H135.52v13.371q0,3.8,2.212,5.642a8.6,8.6,0,0,0,5.69,1.84q5.54,0,7.687-3.516l.215,3.107h3.006V96.717Zm-32.035,17.991a6.261,6.261,0,0,1-4.917-2.044,7.923,7.923,0,0,1-1.825-5.479v-.491a7.921,7.921,0,0,1,1.825-5.479,6.264,6.264,0,0,1,4.917-2.044,6.158,6.158,0,0,1,4.938,2.106,9.789,9.789,0,0,1,0,11.325,6.155,6.155,0,0,1-4.938,2.106m.386-18.4a9.01,9.01,0,0,0-4.444,1.083,7,7,0,0,0-2.9,2.883l-.215-3.558h-3v29.03h3.435V113.972a7.408,7.408,0,0,0,2.9,2.617,8.956,8.956,0,0,0,4.229.981,9.288,9.288,0,0,0,7.151-2.842,11,11,0,0,0,2.641-7.789,11,11,0,0,0-2.641-7.788,9.288,9.288,0,0,0-7.151-2.842"/>
    <path class="d" d="M217.129,49.173a10.471,10.471,0,0,0-5.054,1.179,8.333,8.333,0,0,0-3.42,3.492l-.2-4.2h-6.1V73.236h6.789V60.78a6.534,6.534,0,0,1,1.66-4.907,5.6,5.6,0,0,1,4.039-1.6q4.408,0,4.41,5.379V73.236h6.789V57.76a8.142,8.142,0,0,0-2.453-6.369,9.271,9.271,0,0,0-6.467-2.218M183.68,53.938a5.426,5.426,0,0,1,3.865,1.392,6.688,6.688,0,0,1,1.883,4.034H177.882a6.707,6.707,0,0,1,1.858-4.058,5.532,5.532,0,0,1,3.94-1.368m11.992,7.408q0-5.85-3.1-9.012t-8.846-3.161q-5.946,0-9.217,3.231t-3.27,9.036q0,5.8,3.369,9.036t9.515,3.232a14.856,14.856,0,0,0,7.012-1.486,8.511,8.511,0,0,0,3.989-4.318l-5.55-1.935a4.088,4.088,0,0,1-1.933,2.171,7.313,7.313,0,0,1-3.518.755q-5.154,0-6.194-5h17.542a15.951,15.951,0,0,0,.2-2.547m-42.766,7.407a5.223,5.223,0,0,1-4.013-1.651,7.266,7.266,0,0,1-1.735-4.624V60.4a7.226,7.226,0,0,1,1.735-4.647,5.817,5.817,0,0,1,8.325.259,8.413,8.413,0,0,1,1.536,5.426,8.407,8.407,0,0,1-1.536,5.426,5.247,5.247,0,0,1-4.312,1.887m2.032-19.58a9.158,9.158,0,0,0-5.08,1.392,8.724,8.724,0,0,0-3.245,3.751l-.248-4.671h-6v33.5h6.79V69.367a8.343,8.343,0,0,0,3.122,3.185,9.086,9.086,0,0,0,4.658,1.156,9.761,9.761,0,0,0,7.78-3.256q2.824-3.255,2.825-9.059,0-5.757-2.825-8.989a9.8,9.8,0,0,0-7.78-3.231m-34.093,4.812a5.32,5.32,0,0,1,4.385,1.864,8.751,8.751,0,0,1,1.511,5.591,8.746,8.746,0,0,1-1.511,5.591,6.091,6.091,0,0,1-8.771,0,8.739,8.739,0,0,1-1.511-5.591,8.745,8.745,0,0,1,1.511-5.591,5.318,5.318,0,0,1,4.386-1.864m0-4.812q-6,0-9.342,3.255t-3.345,9.012q0,5.757,3.345,9.012t9.342,3.256q6,0,9.341-3.256t3.345-9.012q0-5.755-3.345-9.012t-9.341-3.255"/>
  </g>
</svg>