<svg xmlns="http://www.w3.org/2000/svg" id="Layer_1" width="340" height="74.7" data-name="Layer 1" version="1.1">
  <defs id="defs1">
    <style id="style1">
      .cls-1{fill:#035c6e}.cls-2{fill:#7dd0e3}
    </style>
  </defs>
  <path id="path1" d="M118.4 21.7 73.9 66.2a31.5 31.5 0 0 0 44.5-44.5" class="cls-1"/>
  <path id="path2" d="M126.4 8.7 81.9 53.1a31.5 31.5 0 0 1 44.5-44.5" class="cls-2"/>
  <path id="path3" d="M55.4 21.7 10.9 66.2a31.5 31.5 0 0 0 44.5-44.5" class="cls-1"/>
  <path id="path4" d="M52.9 19.2 8.4 63.7a31.5 31.5 0 0 1 44.5-44.5" class="cls-2"/>
  <path id="path5" d="M322.7 65.4h3.3v-14l8.7 14h4V47h-3.1v13.7L326.9 47h-4.3zm-21.3-11.8a6.2 6.2 0 0 1 1.3-2.2 5.8 5.8 0 0 1 2-1.4 6.2 6.2 0 0 1 2.5-.5 6.2 6.2 0 0 1 2.6.5 5.8 5.8 0 0 1 2 1.4 6.6 6.6 0 0 1 1.3 2.2 7.5 7.5 0 0 1 .4 2.6 7.8 7.8 0 0 1-.4 2.7 6.4 6.4 0 0 1-1.3 2.1 5.8 5.8 0 0 1-2 1.4 6.3 6.3 0 0 1-2.6.5 6.2 6.2 0 0 1-2.5-.5 5.9 5.9 0 0 1-2-1.4 6.2 6.2 0 0 1-1.3-2 7.8 7.8 0 0 1-.5-2.8 7.5 7.5 0 0 1 .5-2.6m-3.3 6.5a9 9 0 0 0 5 5 10.4 10.4 0 0 0 4 .7 10.6 10.6 0 0 0 4-.7 9.2 9.2 0 0 0 3-2 9 9 0 0 0 2-3 10.1 10.1 0 0 0 .9-4 10.3 10.3 0 0 0-.8-4 8.6 8.6 0 0 0-2-3 9.3 9.3 0 0 0-3.1-1.8 11.2 11.2 0 0 0-4-.7 11 11 0 0 0-4 .7 9.2 9.2 0 0 0-3 2 8.7 8.7 0 0 0-2 3 10.3 10.3 0 0 0-.7 4 10.1 10.1 0 0 0 .7 3.8m-9.7 5.3h3.3V47.1h-3.3zm-13.5 0h3.3V50h5.6v-2.8h-14.5V50h5.6zm-18.5-7 3-7.5 2.7 7.5zm-6.4 7h3.7l1.6-4.2h8l1.7 4.2h3.7l-8-18.3h-2.6zm-16-2.9V50h2.9a12.8 12.8 0 0 1 2.5.2 6.4 6.4 0 0 1 2.3 1 5.2 5.2 0 0 1 1.6 2 6.8 6.8 0 0 1 .7 3.2 6.4 6.4 0 0 1-.7 3 5.3 5.3 0 0 1-1.6 2 6.5 6.5 0 0 1-2.3 1 11 11 0 0 1-2.6.3zm-3.1 3h6.5a12.9 12.9 0 0 0 3.6-.6 9.8 9.8 0 0 0 3-1.8 8.4 8.4 0 0 0 2.5-2.8 8.8 8.8 0 0 0 .9-4.2 9.3 9.3 0 0 0-1-4.3A8 8 0 0 0 244 49a9.2 9.2 0 0 0-3.2-1.5 14.4 14.4 0 0 0-3.6-.5h-6.5zm-22.8 0h3.3V51.2l8.7 14h4.2V47.1H221v13.7l-8.5-13.7H208zM201.7 47h-3.3v11.4a6 6 0 0 1-.2 1.6 4 4 0 0 1-.7 1.4 3.6 3.6 0 0 1-1.2 1 4.4 4.4 0 0 1-2 .4 4.3 4.3 0 0 1-2-.4 3.6 3.6 0 0 1-1.3-1 3.9 3.9 0 0 1-.6-1.4 6 6 0 0 1-.3-1.6V47.1h-3.2v11.6a7.7 7.7 0 0 0 .5 3A6.5 6.5 0 0 0 189 64a7 7 0 0 0 2.3 1.4 8.8 8.8 0 0 0 5.9 0 6.9 6.9 0 0 0 2.3-1.4 6.5 6.5 0 0 0 1.5-2.2 7.5 7.5 0 0 0 .6-3zm-36 6.5a6.4 6.4 0 0 1 1.4-2.2 5.8 5.8 0 0 1 2-1.4 6.2 6.2 0 0 1 2.6-.5 6.2 6.2 0 0 1 2.6.5 5.8 5.8 0 0 1 2 1.4 6.4 6.4 0 0 1 1.2 2.2 7.5 7.5 0 0 1 .5 2.6 7.8 7.8 0 0 1-.5 2.7 6.4 6.4 0 0 1-1.3 2.1 5.8 5.8 0 0 1-2 1.4 6.3 6.3 0 0 1-2.5.5 6.2 6.2 0 0 1-2.5-.5 5.9 5.9 0 0 1-2-1.4 6.2 6.2 0 0 1-1.3-2 7.8 7.8 0 0 1-.5-2.8 7.5 7.5 0 0 1 .5-2.6m-3.4 6.5a9 9 0 0 0 5.2 5 11.3 11.3 0 0 0 7.8 0 9.2 9.2 0 0 0 3.2-2 9 9 0 0 0 2-3 10.1 10.1 0 0 0 .7-4 10.3 10.3 0 0 0-.7-4 8.6 8.6 0 0 0-2-3 9.3 9.3 0 0 0-3.2-1.8 11.9 11.9 0 0 0-7.8 0 9.2 9.2 0 0 0-3.1 2 8.7 8.7 0 0 0-2 3 10.3 10.3 0 0 0-.8 4 10.1 10.1 0 0 0 .8 3.8m-17 5.3h3.3v-7.7h8V55h-8v-5h8.6v-2.8h-12zM259 20.7a9.2 9.2 0 0 0-3.2-1.9 10.7 10.7 0 0 0-3.7-.7 11.7 11.7 0 0 0-3 .4 8 8 0 0 0-2.5 1.2 6.3 6.3 0 0 0-1.8 2 6 6 0 0 0-.8 3 5.7 5.7 0 0 0 .5 2.4 5.2 5.2 0 0 0 1.2 1.7 6.7 6.7 0 0 0 1.7 1.1 19.6 19.6 0 0 0 2 .8l1.9.6a7.2 7.2 0 0 1 1.3.6 2.9 2.9 0 0 1 .9.8 1.7 1.7 0 0 1 .3 1 2.3 2.3 0 0 1-.3 1 1.8 1.8 0 0 1-.6.7 2.8 2.8 0 0 1-1 .4 5 5 0 0 1-1 .1 5.5 5.5 0 0 1-2.5-.6 6 6 0 0 1-2-1.6l-3.4 3.4a9.2 9.2 0 0 0 3.5 2.2 12.4 12.4 0 0 0 4.3.8 11 11 0 0 0 3-.4 7.7 7.7 0 0 0 2.6-1.3 6.2 6.2 0 0 0 1.8-2 6.9 6.9 0 0 0 .7-3.3 5 5 0 0 0-.7-2.6 6 6 0 0 0-1.5-1.7 8.2 8.2 0 0 0-2.1-1.2l-2.2-.8-1.4-.4a6 6 0 0 1-1-.5 2.1 2.1 0 0 1-.6-.6 1.7 1.7 0 0 1-.2-1 1.8 1.8 0 0 1 .2-1 2.4 2.4 0 0 1 .7-.6 2.7 2.7 0 0 1 1-.3 5.9 5.9 0 0 1 1 0 4.9 4.9 0 0 1 2 .4 4.6 4.6 0 0 1 1.7 1.3zm-99 11a6.2 6.2 0 0 1-1.2 2 5.7 5.7 0 0 1-2 1.4 6.3 6.3 0 0 1-4.8 0 5.5 5.5 0 0 1-2-1.3 6 6 0 0 1-1.1-2 7.4 7.4 0 0 1-.4-2.7 7.6 7.6 0 0 1 .4-2.5 5.8 5.8 0 0 1 1.2-2 5.6 5.6 0 0 1 1.9-1.4 5.8 5.8 0 0 1 2.4-.5 6 6 0 0 1 2.5.5 5.4 5.4 0 0 1 1.8 1.3 6.1 6.1 0 0 1 1.3 2 7.3 7.3 0 0 1 .4 2.6 7.6 7.6 0 0 1-.4 2.6m5-7a10 10 0 0 0-2.4-3.6A10.6 10.6 0 0 0 159 19a13.8 13.8 0 0 0-9 0 10.7 10.7 0 0 0-3.7 2.2 10 10 0 0 0-2.4 3.4 11.3 11.3 0 0 0-1 4.6 11.5 11.5 0 0 0 1 4.5 10.3 10.3 0 0 0 2.4 3.5 10.6 10.6 0 0 0 3.6 2.3 13.3 13.3 0 0 0 9 0 10.4 10.4 0 0 0 3.7-2.3 10.2 10.2 0 0 0 2.4-3.5 11.7 11.7 0 0 0 .9-4.5 11.5 11.5 0 0 0-1-4.6m173.8 15.1v-4.3H329V31h8.7v-4H329v-4h9.2v-4.2h-14v21zM319.4 23v-4.3h-16.8V23h5.9v16.6h5V23zm-26 8.4h-5.1l2.6-7zm8.8 8.2-8.7-21h-5l-8.7 21h5.5l1.5-4h8l1.8 4zM279.4 23v-4.3h-17V23h6v16.6h5V23zm-48.1 16.6v-21h-5l.2 13.7h-.1L218 18.7h-5.8v21h5l-.2-13.8 8.5 13.7zm-25.2 0v-4.3h-9.8V31h8.7v-4h-8.6v-4h9v-4.2h-14v21zm-24.7-13.2a2.3 2.3 0 0 1-.8.8 3.7 3.7 0 0 1-1.1.4 7.5 7.5 0 0 1-1.4 0H176v-4.8h2.2a9.5 9.5 0 0 1 1.3 0 3.3 3.3 0 0 1 1 .4 2 2 0 0 1 .9.7 2.2 2.2 0 0 1 .3 1.3 2.3 2.3 0 0 1-.3 1.2m4.7-4.3a5.4 5.4 0 0 0-1.7-2 7.7 7.7 0 0 0-2.6-1 14.2 14.2 0 0 0-3.2-.4h-7.7v21h5v-8h2.6a14 14 0 0 0 3-.3 8 8 0 0 0 2.8-1.2 5.5 5.5 0 0 0 1.8-2 7.4 7.4 0 0 0 0-6" class="cls-1"/>
</svg>
