<svg xmlns="http://www.w3.org/2000/svg" viewBox="0 0 490 230.6">
  <g>
    <path fill="#e1710d" d="M482 171H8V8h474Zm8-171H0v179h490Z"/>
    <path fill="#010202" d="M34.7 34.1h22.9v6.6H42.7v11.8h14.1v6.6H42.7v18.7h-8V34.1zm41.9 44.3c-9 0-15.4-5.6-15.4-16.4s7.5-17.7 16.3-17.7c9 0 15.5 5.6 15.5 16.5s-7.6 17.6-16.4 17.6m.5-27.5c-4.6 0-8.2 3.8-8.2 10.8 0 6.8 3.2 10 8.2 10 4.6 0 8.2-3.8 8.2-10.8 0-6.7-3.3-10-8.2-10m40.1 1.3a14 14 0 0 0-3.7-.5 10.2 10.2 0 0 0-6.4 2.4v23.7h-7.5V45l7.4-.3v3.8c2.3-3 4.3-4 7-4a13.6 13.6 0 0 1 3.7.4ZM128.6 65c0 4.5 1.7 6.4 5.8 6.4a13.6 13.6 0 0 0 6.2-1.4V45l7.6-.3v33.1h-7.3v-2.2c-3 1.8-5 2.8-8.4 2.8-7.7 0-11.4-4.3-11.4-12V45l7.5-.3V65Zm67.4-7.3c0-4.3-2.2-6.3-6-6.3a14.3 14.3 0 0 0-6.2 1.3v25.1h-7.5V57.7c0-4.5-2-6.3-6-6.3a14 14 0 0 0-6.1 1.3v25.1h-7.5V45l7.3-.3v2.4a15.5 15.5 0 0 1 8.6-2.7c4.3 0 7 1.3 9 3.6a17.1 17.1 0 0 1 10.5-3.6c7.2 0 11.4 4.2 11.4 11.8v21.6h-7.6V57.7ZM32.3 137.1a55.9 55.9 0 0 0 11 1c6 0 9.5-2.6 9.5-5.7 0-2.8-1.4-4.5-6.6-6.3l-5.5-1.8c-5.1-1.8-8-5.4-8-11 0-7.6 6.2-13 17-13a47.4 47.4 0 0 1 9.2.8l-.5 6.7a45.9 45.9 0 0 0-9.2-.9c-6 0-8.6 2.3-8.6 5.5 0 2.7 1.5 4.3 5.5 5.6l5.4 1.7c6.4 2 9.2 5.5 9.2 11.2 0 8.2-6.7 14-17.6 14a58 58 0 0 1-10.8-.8Zm32.5-25.7h4v-6l7.5-.7v6.7h8.4v5.8h-8.4v15.6c0 3.8 2 5.4 5 5.4a16.2 16.2 0 0 0 4.2-.5v6.3a22.5 22.5 0 0 1-6.4.8c-6.2 0-10.3-3.5-10.3-11v-16.6h-4Zm49.9 33h-7v-2.2a16 16 0 0 1-9.3 2.6c-6.7 0-10.4-3.7-10.4-9.2 0-6 4.6-10.3 15-10.3h4.5v-1.8c0-3.6-2.2-5.6-7.3-5.6a22.8 22.8 0 0 0-9.4 2l-1-6.3a28.6 28.6 0 0 1 11.7-2.6c8.8 0 13.2 4.2 13.2 11.6v21.8Zm-14.1-5.6a13.7 13.7 0 0 0 6.8-1.8v-6l-4.3-.2c-5.4 0-7.5 1.8-7.5 4.3 0 2.3 1.8 3.8 5 3.8m42.1-14.7c0-4.3-2.1-6.2-6-6.2a15.3 15.3 0 0 0-6.5 1.3v25h-7.5v-32.7l7.3-.3v2.4a15.4 15.4 0 0 1 8.8-2.7c7.2 0 11.4 4.2 11.4 11.7v21.7h-7.5v-20.2Zm43.1 20.2h-7.3V142a14.5 14.5 0 0 1-8.5 2.7c-8.2 0-13.7-5.5-13.7-16.1 0-11.2 7.2-17.7 17.2-17.7a18.2 18.2 0 0 1 4.8.5V98.2l7.5-.4v46.6ZM164 128.3c0 7 3.4 9.9 8.3 9.9a11.6 11.6 0 0 0 6-1.6V118a26.7 26.7 0 0 0-4.7-.4c-5.8 0-9.6 4-9.6 10.8m54.7 16h-7v-2.2a16 16 0 0 1-9.4 2.6c-6.7 0-10.4-3.7-10.4-9.2 0-6 4.6-10.3 15-10.3h4.5v-1.8c0-3.6-2.1-5.6-7.3-5.6a22.8 22.8 0 0 0-9.4 2l-1-6.3a28.6 28.6 0 0 1 11.8-2.6c8.8 0 13.2 4.2 13.2 11.6v21.8Zm-14.2-5.6a13.7 13.7 0 0 0 6.9-1.8v-6l-4.3-.2c-5.4 0-7.5 1.8-7.5 4.3 0 2.3 1.8 3.8 5 3.8m46.4 5.5h-7v-2.2a16 16 0 0 1-9.3 2.6c-6.7 0-10.5-3.7-10.5-9.2 0-6 4.7-10.3 15-10.3h4.6v-1.8c0-3.6-2.2-5.6-7.4-5.6a22.8 22.8 0 0 0-9.3 2l-1.1-6.4a28.6 28.6 0 0 1 11.8-2.5c8.9 0 13.3 4.2 13.3 11.6v21.8Zm-14.1-5.6a13.8 13.8 0 0 0 6.8-1.8v-6l-4.3-.2c-5.4 0-7.5 1.8-7.5 4.3 0 2.3 1.8 3.8 5 3.8m39.8-20.2a14.4 14.4 0 0 0-3.7-.4 10.2 10.2 0 0 0-6.4 2.4v23.7H259v-32.8l7.5-.3v3.8c2.3-3 4.3-4 7-4a13.2 13.2 0 0 1 3.7.4Zm32 25.7h-7.3V142a14.5 14.5 0 0 1-8.5 2.7c-8.2 0-13.7-5.5-13.7-16.1 0-11.2 7.1-17.7 17.2-17.7a18.2 18.2 0 0 1 4.8.5V98.2l7.5-.4v46.6Zm-21.8-16.1c0 7 3.4 9.9 8.2 9.9a11.6 11.6 0 0 0 6-1.6V118a26.8 26.8 0 0 0-4.6-.4c-5.8 0-9.6 4-9.6 10.8M321 97.8a4 4 0 0 1 4.5 4.3 4.1 4.1 0 0 1-4.5 4.3c-2.9 0-4.4-1.8-4.4-4.3a4.1 4.1 0 0 1 4.4-4.3m3.8 46.6h-7.5v-32.8l7.5-.3Zm6.5-7.1a38 38 0 0 0 9.3 1.1c4.7 0 6.3-1.4 6.3-3.4 0-1.7-1-2.7-4.5-3.7l-4-1.2c-4.6-1.3-7.1-4.1-7.1-8.8 0-5.9 5-10.3 13.7-10.3a40.2 40.2 0 0 1 8 .8l-.5 6.3a47.3 47.3 0 0 0-8-.7c-4 0-5.8 1.4-5.8 3.1s.6 2.6 3.8 3.4l4 1.1c5.6 1.5 7.9 4.5 7.9 8.9 0 6.7-5.3 10.9-13.7 10.9a39 39 0 0 1-9.5-1v-6.5Zm53.7 7.1h-7v-2.2a16 16 0 0 1-9.3 2.6c-6.7 0-10.5-3.7-10.5-9.2 0-6 4.7-10.3 15-10.3h4.6v-1.8c0-3.6-2.2-5.6-7.4-5.6a22.8 22.8 0 0 0-9.4 2l-1-6.4a28.6 28.6 0 0 1 11.8-2.5c8.9 0 13.2 4.2 13.2 11.6v21.8Zm-14.1-5.6a13.7 13.7 0 0 0 6.8-1.8v-6l-4.3-.2c-5.4 0-7.4 1.8-7.4 4.3 0 2.3 1.8 3.8 4.9 3.8m19.3-27.5h4v-6l7.5-.7v6.7h8.3v5.8h-8.3v15.6c0 3.8 2 5.4 5 5.4a16.2 16.2 0 0 0 4.2-.5v6.3a22.6 22.6 0 0 1-6.5.8c-6.1 0-10.2-3.5-10.2-11v-16.6h-4v-5.8Zm29.3-13.6a4.1 4.1 0 0 1 4.4 4.3 4.2 4.2 0 0 1-4.4 4.3c-2.9 0-4.4-1.8-4.4-4.3a4.1 4.1 0 0 1 4.4-4.3m3.8 46.6h-7.6v-32.8l7.6-.3Zm21.4-33.6c8 0 13 4.9 13 13.5 0 2 0 4-.2 5.6h-20.3c.8 5.8 4.2 8.5 10 8.5a28 28 0 0 0 9.7-1.6v6.2a30 30 0 0 1-10.5 1.7c-10.1 0-16.5-5.3-16.5-16.8 0-11.2 6.6-17.1 14.8-17.1m5.7 13.5c0-4.5-2.4-7.5-6.2-7.5-3.6 0-6.2 2.6-6.9 7.5ZM32.8 229.8v-3.4c1.4.4 2.6.6 3.7.7a27.7 27.7 0 0 0 3.5.2 8 8 0 0 0 5-1.4 4.4 4.4 0 0 0 1.9-3.7 4.9 4.9 0 0 0-.8-2.8 10.3 10.3 0 0 0-3.1-2.6l-3.8-2.3a10.4 10.4 0 0 1-3.2-3 7 7 0 0 1-1-3.9 8 8 0 0 1 2.7-6.3A10.4 10.4 0 0 1 45 199h3a17.7 17.7 0 0 1 2.7.5l-.3 3.2-2.8-.4a22.7 22.7 0 0 0-2.9-.2 6.3 6.3 0 0 0-4.4 1.5 4.6 4.6 0 0 0-1.7 3.4 4.5 4.5 0 0 0 .8 2.6 7.8 7.8 0 0 0 2.6 2.2l3.7 2.2a11.6 11.6 0 0 1 4 3.4 7.3 7.3 0 0 1 1 4 8.4 8.4 0 0 1-3 6.5 11.5 11.5 0 0 1-7.9 2.7c-1.1 0-2.3 0-3.4-.2a25.6 25.6 0 0 1-3.4-.6m21.7-20.1V207h2.7l.5-5 3.3-.5-.5 5.5h4.8l-.3 2.7h-4.8L59 223.3a5.8 5.8 0 0 0 .3 3.3 1.9 1.9 0 0 0 1.7 1 8.3 8.3 0 0 0 1.6-.2l1.7-.5v3a11 11 0 0 1-2 .6 14.3 14.3 0 0 1-2.3.1 4.1 4.1 0 0 1-3.6-1.6c-.8-1-1-2.9-.8-5.4l1.5-13.8Zm27.8-2.7 2.9-.5-2.1 23.7H80l.4-3.8h-.2a11 11 0 0 1-3.3 3.2 7.2 7.2 0 0 1-3.7 1 4.6 4.6 0 0 1-3.7-1.8Q68 227 68 222.6q0-7.7 3.4-11.9c2.2-2.7 4.8-4 7.6-4a17.9 17.9 0 0 1 2 0 12.5 12.5 0 0 1 1.5.3m-2 15.9 1.2-13.2a10 10 0 0 0-1.4-.2h-1.6c-1.8 0-3.4 1-5 3.2s-2.3 5.4-2.3 9.6a7.2 7.2 0 0 0 .9 4 2.4 2.4 0 0 0 2 1.2 5.2 5.2 0 0 0 2.8-1.2 15.3 15.3 0 0 0 3.4-3.5m21.5 7.4 1.6-15.3c.1-1.9 0-3.2-.4-4a2.1 2.1 0 0 0-2-1 6 6 0 0 0-2.6.9 23 23 0 0 0-3.8 2.8l-1.5 16.6h-3.4l2.1-23 3.4-.4-.4 3.5h.1a15 15 0 0 1 3.8-2.8 7.4 7.4 0 0 1 3.3-.9 4.4 4.4 0 0 1 3.8 1.8c.9 1.2 1.2 3.2 1 6l-1.6 15.8Zm28-33.2-3 33.2h-3.3l.4-3.8h-.1a11.6 11.6 0 0 1-3.4 3.2 7 7 0 0 1-3.6 1 4.6 4.6 0 0 1-3.8-1.8q-1.4-1.9-1.4-6.3 0-7.7 3.3-11.8c2.3-2.7 4.8-4.1 7.7-4.1a16.2 16.2 0 0 1 1.6 0 10 10 0 0 1 1.4.3l.8-9.5Zm-5.7 25.9 1.2-13.2a10.3 10.3 0 0 0-1.4-.2h-1.6c-1.8 0-3.4 1-5 3.2s-2.3 5.4-2.3 9.6a7.2 7.2 0 0 0 .8 4 2.4 2.4 0 0 0 2 1.2 5.2 5.2 0 0 0 2.9-1.2 15.3 15.3 0 0 0 3.3-3.5M148 207l2.8-.5-2 23.7h-3.4l.4-3.8h-.1a11 11 0 0 1-3.3 3.2 7.2 7.2 0 0 1-3.7 1 4.6 4.6 0 0 1-3.8-1.8q-1.4-1.9-1.4-6.3 0-7.7 3.3-11.8t7.7-4a18.1 18.1 0 0 1 1.9 0 12.8 12.8 0 0 1 1.6.3m-2 15.9 1.2-13.2a10 10 0 0 0-1.4-.2h-1.6c-1.8 0-3.4 1-5 3.2s-2.2 5.4-2.2 9.6a7.3 7.3 0 0 0 .8 4 2.4 2.4 0 0 0 2 1.2 5.2 5.2 0 0 0 2.9-1.2 15.3 15.3 0 0 0 3.3-3.5m23.7-15.8 2.9-.5-2.1 23.7h-3.3l.4-3.8h-.2a11 11 0 0 1-3.3 3.2 7.2 7.2 0 0 1-3.7 1 4.6 4.6 0 0 1-3.7-1.8q-1.5-1.9-1.5-6.3 0-7.7 3.4-11.8c2.3-2.7 4.8-4 7.6-4a18.2 18.2 0 0 1 2 0 12.3 12.3 0 0 1 1.5.3m-2 15.9 1.2-13.2a10 10 0 0 0-1.4-.2h-1.6c-1.7 0-3.4 1-4.9 3.2s-2.3 5.4-2.3 9.6a7.3 7.3 0 0 0 .8 4 2.4 2.4 0 0 0 2 1.2 5.2 5.2 0 0 0 2.9-1.2 15.3 15.3 0 0 0 3.3-3.5m21.6-15.8-.4 3.3h-1.4a4.4 4.4 0 0 0-2.8 1.2 13.8 13.8 0 0 0-2.8 3.4l-1.3 15.3h-3.4l2-23 3.3-.4-.4 4.4h.2a11.8 11.8 0 0 1 2.8-3.7 4.4 4.4 0 0 1 2.6-.9 4.5 4.5 0 0 1 .8.1 2.3 2.3 0 0 1 .8.3m19.4-10-3 33.2h-3.2l.3-3.8a11.7 11.7 0 0 1-3.4 3.2 7 7 0 0 1-3.7 1 4.6 4.6 0 0 1-3.8-1.8q-1.4-1.9-1.4-6.3 0-7.7 3.4-11.8c2.2-2.7 4.8-4.1 7.6-4.1a16 16 0 0 1 1.7 0 10 10 0 0 1 1.3.3l.9-9.5Zm-5.7 25.9 1.2-13.2a10 10 0 0 0-1.4-.2h-1.6c-1.8 0-3.4 1-5 3.2s-2.2 5.4-2.2 9.6a7.3 7.3 0 0 0 .8 4 2.4 2.4 0 0 0 2 1.2 5.2 5.2 0 0 0 2.8-1.2 15.3 15.3 0 0 0 3.4-3.5m16.2 7v-3.4c1.3.4 2.6.6 3.7.7a27.7 27.7 0 0 0 3.4.2 8 8 0 0 0 5-1.4 4.4 4.4 0 0 0 2-3.7 4.8 4.8 0 0 0-.9-2.8 10 10 0 0 0-3-2.6l-3.8-2.3a10.4 10.4 0 0 1-3.3-3 7 7 0 0 1-1-3.9 8 8 0 0 1 2.8-6.3 10.4 10.4 0 0 1 7.1-2.4h3.1a17.7 17.7 0 0 1 2.7.5l-.3 3.2-2.8-.4a22.7 22.7 0 0 0-3-.2 6.3 6.3 0 0 0-4.4 1.5 4.6 4.6 0 0 0-1.6 3.4 4.5 4.5 0 0 0 .7 2.6 7.8 7.8 0 0 0 2.7 2.2l3.6 2.2a11.6 11.6 0 0 1 4 3.4 7.3 7.3 0 0 1 1.1 4 8.4 8.4 0 0 1-3 6.5 11.5 11.5 0 0 1-8 2.7c-1 0-2.2 0-3.3-.2a25.3 25.3 0 0 1-3.4-.6m36.1-22.7 2.9-.5-2.2 23.7H253l.3-3.8a11 11 0 0 1-3.4 3.2 7.3 7.3 0 0 1-3.7 1 4.5 4.5 0 0 1-3.8-1.8q-1.4-1.9-1.4-6.3 0-7.7 3.4-11.8t7.6-4a18.1 18.1 0 0 1 2 0 12.8 12.8 0 0 1 1.5.3m-2 15.9 1.2-13.2a10 10 0 0 0-1.4-.2h-1.6c-1.7 0-3.4 1-5 3.2s-2.2 5.4-2.2 9.6a7.3 7.3 0 0 0 .8 4 2.4 2.4 0 0 0 2 1.2 5.2 5.2 0 0 0 2.9-1.2 15.1 15.1 0 0 0 3.3-3.5m9.3 7.4 2-23 3.4-.4-.3 3.5h.2a17.9 17.9 0 0 1 3.5-2.9 6.5 6.5 0 0 1 3.3-.8 4.3 4.3 0 0 1 3 1 5.3 5.3 0 0 1 1.5 2.8 16.6 16.6 0 0 1 3.8-3 7.3 7.3 0 0 1 3.4-.8 4.3 4.3 0 0 1 3.7 1.8q1.3 1.8 1 6l-1.6 15.8h-3.3l1.4-15.3c.2-1.9.1-3.2-.4-4a2 2 0 0 0-1.7-1 5.5 5.5 0 0 0-2.6.8 20.6 20.6 0 0 0-3.4 2.5l-1.7 17h-3.4l1.5-15.3a7.8 7.8 0 0 0-.3-4 1.9 1.9 0 0 0-1.8-1 5.4 5.4 0 0 0-2.6.9 24.9 24.9 0 0 0-3.7 2.7l-1.5 16.7Zm33.1-8.2q0-7.8 3.1-11.6t6.7-3.8a6.4 6.4 0 0 1 4.5 1.4 5 5 0 0 1 1.5 4 7.8 7.8 0 0 1-3.3 6.4 14.8 14.8 0 0 1-9.1 2.5q0 3.9 1.2 5.2a4.5 4.5 0 0 0 3.5 1.4 11.4 11.4 0 0 0 3.1-.4 16.4 16.4 0 0 0 3-1.3v3.2a13.2 13.2 0 0 1-3.3 1.3 16.8 16.8 0 0 1-3.7.4 6.9 6.9 0 0 1-5.4-2c-1.2-1.4-1.8-3.6-1.8-6.6m12.3-9.6a2.8 2.8 0 0 0-.7-2.2 3 3 0 0 0-2.2-.7c-1.1 0-2.3.8-3.5 2.2s-2 3.6-2.3 6.6a10.4 10.4 0 0 0 6.5-1.7 5 5 0 0 0 2.2-4.2m19 17.7 1.4-15.3c.2-1.9 0-3.2-.4-4a2.1 2.1 0 0 0-1.8-1 6 6 0 0 0-2.7.9 23 23 0 0 0-3.8 2.8l-1.5 16.6H315l2-23 3.4-.4-.3 3.5h.1a14.9 14.9 0 0 1 3.8-2.9 7.3 7.3 0 0 1 3.3-.8 4.4 4.4 0 0 1 3.8 1.7c.9 1.2 1.2 3.2 1 6l-1.6 15.9Zm13 0-3.6-23.2h3.6l2.5 20h.2l1.1-2.2a74.7 74.7 0 0 0 5-13.3l-.7-4.5h3.4l2.7 20h.1l1.1-2.2a45.9 45.9 0 0 0 3-8.2 68 68 0 0 0 1.8-9.6h3.5a59.2 59.2 0 0 1-2 9.9 49.8 49.8 0 0 1-3.8 8.7l-2.3 4.5h-4l-2-14h-.1a54.3 54.3 0 0 1-1.6 5.1 42.1 42.1 0 0 1-2 4.8l-2 4.1Zm25.9-8.2q0-7.8 3.1-11.6t6.7-3.8a6.4 6.4 0 0 1 4.5 1.4 5 5 0 0 1 1.6 4 7.7 7.7 0 0 1-3.4 6.5 14.8 14.8 0 0 1-9 2.5c0 2.6.4 4.3 1.2 5.2a4.5 4.5 0 0 0 3.5 1.4 11.3 11.3 0 0 0 3-.5 16.2 16.2 0 0 0 3-1.2v3.1a13 13 0 0 1-3.2 1.3 16.8 16.8 0 0 1-3.8.4 6.8 6.8 0 0 1-5.3-2c-1.2-1.4-1.9-3.6-1.9-6.6m12.4-9.6a2.8 2.8 0 0 0-.8-2.2 3 3 0 0 0-2.1-.7c-1.2 0-2.3.8-3.5 2.2s-2 3.6-2.3 6.6a10.4 10.4 0 0 0 6.4-1.7 5 5 0 0 0 2.3-4.2m18.9-5.5-.5 3.3h-1.3a4.5 4.5 0 0 0-2.8 1.2 13.5 13.5 0 0 0-2.8 3.4l-1.3 15.3h-3.4l2-23 3.3-.4-.4 4.4h.2a12 12 0 0 1 2.8-3.7 4.5 4.5 0 0 1 2.6-.9 4.6 4.6 0 0 1 .8.1 2.3 2.3 0 0 1 .8.3m5.5 14.8-.8 8.4h-3.4l3-32.8 3.5-.4-1.2 12.4h.1a9.6 9.6 0 0 1 2.9-2 6.9 6.9 0 0 1 3-.8 5.5 5.5 0 0 1 4 1.5 5.6 5.6 0 0 1 1.5 4.2 7.7 7.7 0 0 1-1.7 4.9 9.2 9.2 0 0 1-4.3 3l3.3 5.4a32.6 32.6 0 0 0 3.3 4.6h-4.2l-1.4-1.8a15.3 15.3 0 0 1-1.2-1.8l-3-5.2Zm.2-2.7 1.8-.2a9.2 9.2 0 0 0 5.2-2 5 5 0 0 0 1.8-4 3.4 3.4 0 0 0-.7-2.4 2.7 2.7 0 0 0-2-.8 6.7 6.7 0 0 0-2.7.8 8.8 8.8 0 0 0-2.8 2Zm15.8 2.9q0-7.8 3-11.6t6.8-3.8a6.4 6.4 0 0 1 4.4 1.4 5 5 0 0 1 1.6 4 7.8 7.8 0 0 1-3.4 6.5 14.8 14.8 0 0 1-9 2.5q0 3.9 1.2 5.2a4.5 4.5 0 0 0 3.5 1.4 11.4 11.4 0 0 0 3-.5 16.7 16.7 0 0 0 3-1.2v3.1a13.2 13.2 0 0 1-3.2 1.3 16.8 16.8 0 0 1-3.8.4 6.9 6.9 0 0 1-5.3-2c-1.2-1.4-1.9-3.6-1.9-6.6m12.4-9.6a2.8 2.8 0 0 0-.8-2.2 3 3 0 0 0-2.1-.7c-1.2 0-2.3.8-3.5 2.2s-2 3.6-2.3 6.6a10.4 10.4 0 0 0 6.4-1.7 5 5 0 0 0 2.3-4.2m18.9 17.7 1.5-15.3c.2-1.9 0-3.2-.4-4a2.1 2.1 0 0 0-1.9-1 6 6 0 0 0-2.7.9 23 23 0 0 0-3.8 2.8l-1.5 16.6H438l2-23 3.4-.4-.3 3.5h.1a15 15 0 0 1 3.8-2.9 7.4 7.4 0 0 1 3.3-.8 4.4 4.4 0 0 1 3.8 1.7c.9 1.2 1.2 3.2 1 6l-1.6 15.9Z"/>
  </g>
</svg>